<?xml version="1.0" encoding="UTF-8"?>
<svg width="355px" height="73px" viewBox="0 0 355 73" version="1.1" xmlns="http://www.w3.org/2000/svg" xmlns:xlink="http://www.w3.org/1999/xlink">
    <!-- Generator: Sketch 58 (84663) - https://sketch.com -->
    <title>Group</title>
    <desc>Created with Sketch.</desc>
    <g id="Page-1" stroke="none" stroke-width="1" fill="none" fill-rule="evenodd">
        <g id="Group" transform="translate(0.000000, -5.000000)">
            <path d="M29.0297552,37.4374011 L29.0297552,28.252467 C29.0297552,28.1183804 29.0967985,16.9221469 39.220339,16.4528437 L45.7235405,16.1846704 C50.1483992,15.5812806 52.6960452,14.3074576 54.3050847,10.9552919 L54.3050847,24.1628249 C54.2934309,24.5016237 54.2485197,24.8384581 54.1709981,25.1684746 C53.1653484,29.2581168 49.2097928,30.9341996 45.0531073,31.1353296 L39.4214689,31.4035028 C33.1193974,31.6716761 30.9740113,34.1522787 29.0297552,37.4374011 Z M29.0297552,60.3662147 C29.0297552,60.2991714 29.0967985,49.0358945 39.220339,48.5665913 L45.7235405,48.2984181 C50.1483992,47.6950282 52.6960452,46.4212053 54.3050847,43.0690395 L54.3050847,56.2765725 C54.2934309,56.6153713 54.2485197,56.9522057 54.1709981,57.2822222 C53.1653484,61.3718644 49.2097928,63.0479473 45.0531073,63.2490772 L39.2873823,63.4502072 C33.1193974,63.7854237 30.9740113,66.2660264 29.0297552,69.5511488 L29.0297552,60.3662147 Z M26.6832392,55.3379661 C24.7389831,52.119887 22.593597,49.5722411 16.4256121,49.2370245 L10.7269303,48.9688512 C6.57024482,48.7677213 2.61468927,47.0916384 1.60903955,43.0019962 C1.531518,42.6719798 1.48660675,42.3351454 1.47495292,41.9963465 L1.47495292,28.7888136 C3.08399247,32.1409793 5.63163842,33.4148023 10.0564972,34.0181921 L16.5596987,34.2863653 C26.6161959,34.7556685 26.7502825,46.0189454 26.7502825,46.0859887 L26.7502825,55.3379661 L26.6832392,55.3379661 Z M39.220339,32.9454991 L45.187194,32.6102825 C55.645951,32.073936 55.847081,24.1628249 55.847081,24.0957815 L55.847081,5.99408663 L54.9755179,5.86 C54.9755179,5.92704331 53.3664783,13.9722411 45.8576271,14.3745009 L39.019209,14.7097175 C33.253484,14.9778908 30.3035782,18.5982298 28.8956685,21.9503955 C28.0415521,24.0897403 27.5433163,26.3544486 27.4207156,28.6547269 L27.4207156,41.3929567 C27.2722513,40.8469758 27.0931861,40.3097804 26.8843691,39.7839171 C25.4764595,36.4317514 22.5265537,32.8784557 16.7608286,32.6102825 L9.92241055,32.2750659 C5.43050847,32.073936 2.54764595,28.9899435 1.20677966,25.0343879 C1.06383583,24.6186112 0.95179227,24.1928456 0.871563089,23.760565 L0,23.8276083 L0,41.9293032 C0.00123189106,42.36172 0.0690707901,42.7913663 0.201129944,43.2031262 C1.34086629,48.1643315 5.76572505,50.2426742 10.659887,50.5108475 L16.626742,50.846064 C25.4094162,51.3153672 27.3536723,61.0366478 27.4877589,62.7127307 L27.4877589,77.06 L28.359322,77.06 C28.359322,76.0543503 30.1024482,65.5955932 39.220339,65.0592467 L45.187194,64.7240301 C55.645951,64.1876836 55.847081,56.2095292 55.847081,56.1424859 L55.847081,38.040791 L54.9755179,37.9737476 C54.9755179,37.9737476 53.3664783,46.0189454 45.8576271,46.4212053 L39.019209,46.7564218 C33.253484,47.0245951 30.3706215,50.5778908 28.8956685,53.9970998 C28.6871254,54.5002591 28.5080405,55.0151282 28.359322,55.539096 L28.359322,44.879209 C28.2252354,44.1417326 30.7728814,32.9454991 39.220339,32.9454991" id="Shape" fill="#009B48" fill-rule="nonzero"></path>
            <text id="Kronos" fill="#3C4B64" font-family="Arial-BoldMT, Arial" font-size="85" font-weight="bold">
                <tspan x="61" y="77">Kronos</tspan>
            </text>
        </g>
    </g>
</svg>