<?xml version="1.0" encoding="UTF-8"?>
<svg width="100px" height="59px" viewBox="0 0 100 59" version="1.1" xmlns="http://www.w3.org/2000/svg" xmlns:xlink="http://www.w3.org/1999/xlink">
    <!-- Generator: Sketch 58 (84663) - https://sketch.com -->
    <title>Group</title>
    <desc>Created with Sketch.</desc>
    <defs>
        <polygon id="path-1" points="54.756177 57.8373984 54.756177 8.37014101 64.7441089 8.37014101 64.7441089 30.3368426 84.9224308 8.37014101 98.35215 8.37014101 79.7260067 27.6374015 99.3644404 57.8373984 86.4408664 57.8373984 72.842432 34.6222053 64.7441089 42.8892435 64.7441089 57.8373984"></polygon>
    </defs>
    <g id="Page-1" stroke="none" stroke-width="1" fill="none" fill-rule="evenodd">
        <g id="Group" transform="translate(0.000000, 0.860000)" fill-rule="nonzero">
            <path d="M23.601427,25.6726838 L23.601427,18.2052578 C23.601427,18.0962442 23.6559337,8.99361536 31.8864545,8.61206804 L37.1736102,8.394041 C40.7710563,7.90348016 42.8423132,6.86785173 44.1504754,4.14251374 L44.1504754,14.8803454 C44.1410007,15.1557916 44.1044875,15.4296407 44.0414619,15.6979468 C43.2238605,19.0228592 40.0079617,20.3855281 36.6285426,20.5490484 L32.0499747,20.7670755 C26.9263393,20.9851025 25.182123,23.0018526 23.601427,25.6726838 Z M23.601427,44.3139957 C23.601427,44.2594889 23.6559337,35.1023533 31.8864545,34.720806 L37.1736102,34.5027789 C40.7710563,34.0122181 42.8423132,32.9765897 44.1504754,30.2512517 L44.1504754,40.9890833 C44.1410007,41.2645296 44.1044875,41.5383787 44.0414619,41.8066847 C43.2238605,45.1315971 40.0079617,46.4942661 36.6285426,46.6577864 L31.9409612,46.8213066 C26.9263393,47.0938404 25.182123,49.1105905 23.601427,51.7814218 L23.601427,44.3139957 Z M21.6936904,40.2259887 C20.1129944,37.6096642 18.368778,35.5384074 13.3541561,35.2658736 L8.72108156,35.0478465 C5.34166246,34.8843262 2.12576363,33.5216573 1.30816223,30.1967449 C1.24513658,29.9284388 1.20862337,29.6545897 1.19914871,29.3791435 L1.19914871,18.6413118 C2.50731095,21.3666498 4.57856782,22.4022783 8.17601396,22.8928391 L13.4631697,23.1108661 C21.6391836,23.4924135 21.7481971,32.6495491 21.7481971,32.7040559 L21.7481971,40.2259887 L21.6936904,40.2259887 Z M31.8864545,22.0207309 L36.7375561,21.7481971 C45.2406106,21.3121431 45.4041309,14.8803454 45.4041309,14.8258387 L45.4041309,0.10901352 L44.695543,0 C44.695543,0.0545067598 43.3873808,6.59531793 37.2826237,6.92235849 L31.7229342,7.19489229 C27.0353528,7.41291933 24.6370554,10.3562844 23.4924135,13.0816223 C22.7980098,14.8209271 22.3929401,16.6621533 22.2932647,18.5322983 L22.2932647,28.8885827 C22.172562,28.4446958 22.0269806,28.0079516 21.8572107,27.5804204 C20.7125687,24.8550824 18.3142713,21.9662242 13.6266899,21.7481971 L8.06700044,21.4756633 C4.41504754,21.3121431 2.07125687,18.8048321 0.981121676,15.5889333 C0.86490718,15.2509034 0.773814854,14.9047525 0.708587877,14.5533049 L0,14.6078116 L0,29.3246367 C0.00100153745,29.6761951 0.0561551139,30.0255011 0.163520279,30.3602652 C1.0901352,34.3937654 4.68758134,36.083475 8.6665748,36.301502 L13.5176764,36.5740358 C20.6580619,36.9555831 22.238758,44.8590633 22.3477715,46.2217323 L22.3477715,57.8861789 L23.0563594,57.8861789 C23.0563594,57.0685775 24.4735351,48.5655229 31.8864545,48.1294689 L36.7375561,47.8569351 C45.2406106,47.420881 45.4041309,40.9345766 45.4041309,40.8800698 L45.4041309,26.1632447 L44.695543,26.1087379 C44.695543,26.1087379 43.3873808,32.6495491 37.2826237,32.9765897 L31.7229342,33.2491235 C27.0353528,33.4671505 24.6915622,36.3560088 23.4924135,39.1358535 C23.3228662,39.5449261 23.1772687,39.9635189 23.0563594,40.389509 L23.0563594,31.7229342 C22.9473459,31.1233598 25.0186027,22.0207309 31.8864545,22.0207309" id="Shape" fill="#FFFFFF"></path>
            <g id="K">
                <use fill="#666666" xlink:href="#path-1"></use>
                <use fill="#FFFFFF" xlink:href="#path-1"></use>
            </g>
        </g>
    </g>
</svg>