<?xml version="1.0" encoding="UTF-8"?>
<svg width="355px" height="73px" viewBox="0 0 355 73" version="1.1" xmlns="http://www.w3.org/2000/svg" xmlns:xlink="http://www.w3.org/1999/xlink">
    <!-- Generator: Sketch 58 (84663) - https://sketch.com -->
    <title>Group</title>
    <desc>Created with Sketch.</desc>
    <defs>
        <path d="M67.3500977,71.14 L67.3500977,10.2952734 L79.6352539,10.2952734 L79.6352539,37.3143164 L104.45459,10.2952734 L120.973145,10.2952734 L98.0629883,33.9940039 L122.218262,71.14 L106.322266,71.14 L89.5961914,42.5853125 L79.6352539,52.7537695 L79.6352539,71.14 L67.3500977,71.14 Z M139.649902,71.14 L127.987305,71.14 L127.987305,27.0628516 L138.819824,27.0628516 L138.819824,33.3299414 C140.673675,30.3693146 142.340732,28.4186505 143.821045,27.4778906 C145.301358,26.5371307 146.98225,26.0667578 148.86377,26.0667578 C151.520033,26.0667578 154.079415,26.7999862 156.541992,28.2664648 L152.931152,38.4349219 C150.966624,37.1621291 149.140471,36.5257422 147.452637,36.5257422 C145.820142,36.5257422 144.436692,36.9753633 143.302246,37.8746191 C142.1678,38.7738749 141.275475,40.3994283 140.625244,42.7513281 C139.975013,45.1032279 139.649902,50.0283089 139.649902,57.5267188 L139.649902,71.14 Z M158.866211,48.4788672 C158.866211,44.6051499 159.820791,40.8560012 161.72998,37.2313086 C163.63917,33.606616 166.343814,30.8397166 169.843994,28.9305273 C173.344174,27.0213381 177.25242,26.0667578 181.568848,26.0667578 C188.237175,26.0667578 193.701802,28.2318566 197.962891,32.5621191 C202.22398,36.8923817 204.354492,42.3639253 204.354492,48.9769141 C204.354492,55.6452417 202.203228,61.1721233 197.900635,65.5577246 C193.598042,69.943326 188.181836,72.1360938 181.651855,72.1360938 C177.612122,72.1360938 173.759214,71.2230169 170.093018,69.3968359 C166.426821,67.5706549 163.63917,64.8936797 161.72998,61.3658301 C159.820791,57.8379804 158.866211,53.5423691 158.866211,48.4788672 Z M170.819336,49.1014258 C170.819336,53.4731924 171.856923,56.8211407 173.932129,59.1453711 C176.007335,61.4696015 178.566717,62.6316992 181.610352,62.6316992 C184.653987,62.6316992 187.206451,61.4696015 189.267822,59.1453711 C191.329193,56.8211407 192.359863,53.4455234 192.359863,49.018418 C192.359863,44.7019901 191.329193,41.3817108 189.267822,39.0574805 C187.206451,36.7332501 184.653987,35.5711523 181.610352,35.5711523 C178.566717,35.5711523 176.007335,36.7332501 173.932129,39.0574805 C171.856923,41.3817108 170.819336,44.7296591 170.819336,49.1014258 Z M253.578125,71.14 L241.915527,71.14 L241.915527,48.6448828 C241.915527,43.8857444 241.666506,40.8075688 241.168457,39.4102637 C240.670408,38.0129585 239.86109,36.9269505 238.740479,36.152207 C237.619867,35.3774636 236.271004,34.9900977 234.693848,34.9900977 C232.673981,34.9900977 230.861662,35.5434775 229.256836,36.6502539 C227.65201,37.7570303 226.552168,39.223487 225.957275,41.049668 C225.382213,42.8149763 225.085101,46.0281467 225.065933,50.6892707 L225.064941,71.14 L213.402344,71.14 L213.402344,27.0628516 L224.234863,27.0628516 L224.234863,33.5374609 C228.080911,28.5569673 232.922985,26.0667578 238.76123,26.0667578 C241.334486,26.0667578 243.68635,26.5302135 245.816895,27.4571387 C247.947439,28.3840639 249.559158,29.5669134 250.6521,31.0057227 C251.745041,32.4445319 252.505939,34.0770026 252.934814,35.9031836 C253.36369,37.7293646 253.578125,40.3440845 253.578125,43.7474219 L253.578125,71.14 Z M262.708984,48.4788672 C262.708984,44.6051499 263.663565,40.8560012 265.572754,37.2313086 C267.481943,33.606616 270.186587,30.8397166 273.686768,28.9305273 C277.186948,27.0213381 281.095193,26.0667578 285.411621,26.0667578 C292.079949,26.0667578 297.544575,28.2318566 301.805664,32.5621191 C306.066753,36.8923817 308.197266,42.3639253 308.197266,48.9769141 C308.197266,55.6452417 306.046001,61.1721233 301.743408,65.5577246 C297.440815,69.943326 292.024609,72.1360938 285.494629,72.1360938 C281.454895,72.1360938 277.601988,71.2230169 273.935791,69.3968359 C270.269594,67.5706549 267.481943,64.8936797 265.572754,61.3658301 C263.663565,57.8379804 262.708984,53.5423691 262.708984,48.4788672 Z M274.662109,49.1014258 C274.662109,53.4731924 275.699697,56.8211407 277.774902,59.1453711 C279.850108,61.4696015 282.40949,62.6316992 285.453125,62.6316992 C288.49676,62.6316992 291.049225,61.4696015 293.110596,59.1453711 C295.171967,56.8211407 296.202637,53.4455234 296.202637,49.018418 C296.202637,44.7019901 295.171967,41.3817108 293.110596,39.0574805 C291.049225,36.7332501 288.49676,35.5711523 285.453125,35.5711523 C282.40949,35.5711523 279.850108,36.7332501 277.774902,39.0574805 C275.699697,41.3817108 274.662109,44.7296591 274.662109,49.1014258 Z M313.219238,58.5643164 L324.92334,56.7796484 C325.421389,59.04854 326.431307,60.7709349 327.953125,61.9468848 C329.474943,63.1228347 331.605455,63.7108008 334.344727,63.7108008 C337.360692,63.7108008 339.62955,63.1574209 341.151367,62.0506445 C342.175135,61.2759011 342.687012,60.2383138 342.687012,58.9378516 C342.687012,58.0524305 342.410322,57.3192021 341.856934,56.7381445 C341.275876,56.1847563 339.975433,55.67288 337.955566,55.2025 L336.84319,54.9543387 C328.076465,52.9759559 322.484582,51.1633481 320.067383,49.5164648 C316.581037,47.1368957 314.837891,43.8304509 314.837891,39.5970313 C314.837891,35.7786528 316.345851,32.5690495 319.361816,29.968125 C322.377782,27.3672005 327.053842,26.0667578 333.390137,26.0667578 C339.422068,26.0667578 343.904445,27.0490071 346.837402,29.0135352 C349.77036,30.9780632 351.790196,33.8833076 352.896973,37.7293555 L341.898438,39.7630469 C341.428058,38.0475435 340.535732,36.7332663 339.221436,35.8201758 C337.907139,34.9070853 336.032564,34.4505469 333.597656,34.4505469 C330.526352,34.4505469 328.326667,34.8794163 326.998535,35.737168 C326.113114,36.345895 325.67041,37.1344613 325.67041,38.1028906 C325.67041,38.9329729 326.057776,39.6385323 326.83252,40.2195898 C327.858923,40.975887 331.344044,42.0353949 337.287984,43.3981439 L337.727295,43.4983984 C343.939077,44.9095383 348.276192,46.6388504 350.73877,48.6863867 C353.173678,50.7615924 354.391113,53.6530023 354.391113,57.3607031 C354.391113,61.4004369 352.703305,64.8728956 349.327637,67.7781836 C345.951969,70.6834716 340.957715,72.1360938 334.344727,72.1360938 C328.340465,72.1360938 323.588315,70.918658 320.088135,68.48375 C316.587955,66.048842 314.298345,62.7423972 313.219238,58.5643164 Z" id="path-1"></path>
    </defs>
    <g id="Page-1" stroke="none" stroke-width="1" fill="none" fill-rule="evenodd">
        <g id="Group" transform="translate(0.000000, 0.860000)" fill-rule="nonzero">
            <path d="M29.0297552,31.5774011 L29.0297552,22.392467 C29.0297552,22.2583804 29.0967985,11.0621469 39.220339,10.5928437 L45.7235405,10.3246704 C50.1483992,9.7212806 52.6960452,8.44745763 54.3050847,5.0952919 L54.3050847,18.3028249 C54.2934309,18.6416237 54.2485197,18.9784581 54.1709981,19.3084746 C53.1653484,23.3981168 49.2097928,25.0741996 45.0531073,25.2753296 L39.4214689,25.5435028 C33.1193974,25.8116761 30.9740113,28.2922787 29.0297552,31.5774011 Z M29.0297552,54.5062147 C29.0297552,54.4391714 29.0967985,43.1758945 39.220339,42.7065913 L45.7235405,42.4384181 C50.1483992,41.8350282 52.6960452,40.5612053 54.3050847,37.2090395 L54.3050847,50.4165725 C54.2934309,50.7553713 54.2485197,51.0922057 54.1709981,51.4222222 C53.1653484,55.5118644 49.2097928,57.1879473 45.0531073,57.3890772 L39.2873823,57.5902072 C33.1193974,57.9254237 30.9740113,60.4060264 29.0297552,63.6911488 L29.0297552,54.5062147 Z M26.6832392,49.4779661 C24.7389831,46.259887 22.593597,43.7122411 16.4256121,43.3770245 L10.7269303,43.1088512 C6.57024482,42.9077213 2.61468927,41.2316384 1.60903955,37.1419962 C1.531518,36.8119798 1.48660675,36.4751454 1.47495292,36.1363465 L1.47495292,22.9288136 C3.08399247,26.2809793 5.63163842,27.5548023 10.0564972,28.1581921 L16.5596987,28.4263653 C26.6161959,28.8956685 26.7502825,40.1589454 26.7502825,40.2259887 L26.7502825,49.4779661 L26.6832392,49.4779661 Z M39.220339,27.0854991 L45.187194,26.7502825 C55.645951,26.213936 55.847081,18.3028249 55.847081,18.2357815 L55.847081,0.134086629 L54.9755179,0 C54.9755179,0.0670433145 53.3664783,8.11224105 45.8576271,8.51450094 L39.019209,8.84971751 C33.253484,9.11789077 30.3035782,12.7382298 28.8956685,16.0903955 C28.0415521,18.2297403 27.5433163,20.4944486 27.4207156,22.7947269 L27.4207156,35.5329567 C27.2722513,34.9869758 27.0931861,34.4497804 26.8843691,33.9239171 C25.4764595,30.5717514 22.5265537,27.0184557 16.7608286,26.7502825 L9.92241055,26.4150659 C5.43050847,26.213936 2.54764595,23.1299435 1.20677966,19.1743879 C1.06383583,18.7586112 0.95179227,18.3328456 0.871563089,17.900565 L0,17.9676083 L0,36.0693032 C0.00123189106,36.50172 0.0690707901,36.9313663 0.201129944,37.3431262 C1.34086629,42.3043315 5.76572505,44.3826742 10.659887,44.6508475 L16.626742,44.986064 C25.4094162,45.4553672 27.3536723,55.1766478 27.4877589,56.8527307 L27.4877589,71.2 L28.359322,71.2 C28.359322,70.1943503 30.1024482,59.7355932 39.220339,59.1992467 L45.187194,58.8640301 C55.645951,58.3276836 55.847081,50.3495292 55.847081,50.2824859 L55.847081,32.180791 L54.9755179,32.1137476 C54.9755179,32.1137476 53.3664783,40.1589454 45.8576271,40.5612053 L39.019209,40.8964218 C33.253484,41.1645951 30.3706215,44.7178908 28.8956685,48.1370998 C28.6871254,48.6402591 28.5080405,49.1551282 28.359322,49.679096 L28.359322,39.019209 C28.2252354,38.2817326 30.7728814,27.0854991 39.220339,27.0854991" id="Shape" fill="#FFFFFF"></path>
            <g id="Kronos">
                <use fill="#666666" xlink:href="#path-1"></use>
                <use fill="#FFFFFF" xlink:href="#path-1"></use>
            </g>
        </g>
    </g>
</svg>